<svg xmlns="http://www.w3.org/2000/svg" width="40" height="40" viewBox="0 0 40 40">
  <g id="Group_606" data-name="Group 606" transform="translate(-8486 15216)">
    <g id="Path_417" data-name="Path 417" transform="translate(8486 -15216)" fill="#8d08ef">
      <path d="M 20 39 C 17.43457984924316 39 14.94641971588135 38.49777984619141 12.60464954376221 37.50730133056641 C 10.34226036071777 36.55038833618164 8.310219764709473 35.18027877807617 6.564970016479492 33.43503189086914 C 4.819719791412354 31.68977928161621 3.449609994888306 29.65773963928223 2.492700099945068 27.39534950256348 C 1.502220034599304 25.05357933044434 1 22.5654296875 1 20 C 1 17.43457984924316 1.502220034599304 14.94641971588135 2.492700099945068 12.60464954376221 C 3.449609994888306 10.34226036071777 4.819719791412354 8.310219764709473 6.564970016479492 6.564970016479492 C 8.310219764709473 4.819719791412354 10.34226036071777 3.449609994888306 12.60464954376221 2.492700099945068 C 14.94641971588135 1.502220034599304 17.43457984924316 1 20 1 C 22.5654296875 1 25.05357933044434 1.502220034599304 27.39534950256348 2.492700099945068 C 29.65773963928223 3.449609994888306 31.68977928161621 4.819719791412354 33.43503189086914 6.564970016479492 C 35.18027877807617 8.310219764709473 36.55038833618164 10.34226036071777 37.50730133056641 12.60464954376221 C 38.49777984619141 14.94641971588135 39 17.43457984924316 39 20 C 39 22.5654296875 38.49777984619141 25.05357933044434 37.50730133056641 27.39534950256348 C 36.55038833618164 29.65773963928223 35.18027877807617 31.68977928161621 33.43503189086914 33.43503189086914 C 31.68977928161621 35.18027877807617 29.65773963928223 36.55038833618164 27.39534950256348 37.50730133056641 C 25.05357933044434 38.49777984619141 22.5654296875 39 20 39 Z" stroke="none"/>
      <path d="M 20 2 C 15.19202041625977 2 10.67182922363281 3.872329711914062 7.272079467773438 7.272079467773438 C 3.872329711914062 10.67182922363281 2 15.19202041625977 2 20 C 2 24.80797958374023 3.872329711914062 29.32817077636719 7.272079467773438 32.72792053222656 C 10.67182922363281 36.12767028808594 15.19202041625977 38 20 38 C 24.80797958374023 38 29.32817077636719 36.12767028808594 32.72792053222656 32.72792053222656 C 36.12767028808594 29.32817077636719 38 24.80797958374023 38 20 C 38 15.19202041625977 36.12767028808594 10.67182922363281 32.72792053222656 7.272079467773438 C 29.32817077636719 3.872329711914062 24.80797958374023 2 20 2 M 20 0 C 31.04570007324219 0 40 8.954299926757812 40 20 C 40 31.04570007324219 31.04570007324219 40 20 40 C 8.954299926757812 40 0 31.04570007324219 0 20 C 0 8.954299926757812 8.954299926757812 0 20 0 Z" stroke="none" fill="#000"/>
    </g>
    <path id="water_damage_FILL0_wght400_GRAD0_opsz48" d="M8.5,31.5v-12H4L19,6,34,19.5H29.5v12Zm2.25-2.25h16.5V16.425L19,9.038l-8.25,7.388Zm5.625-6.75ZM19,19.125Z" transform="translate(8487 -15215.645)" fill="#f8f8f8"/>
    <path id="electric_bolt_FILL0_wght400_GRAD0_opsz48" d="M10.6,16.3a.482.482,0,0,1-.14-.311.453.453,0,0,1,.093-.327l3.021-4.205-5.046-.483a.573.573,0,0,1-.537-.421A.556.556,0,0,1,8.167,9.9L14.63,4.106a.431.431,0,0,1,.335-.132.494.494,0,0,1,.475.459.453.453,0,0,1-.093.327L12.325,8.966l5.046.483a.573.573,0,0,1,.537.421.556.556,0,0,1-.179.654l-6.463,5.794a.431.431,0,0,1-.335.132A.486.486,0,0,1,10.6,16.3Z" transform="translate(8493.052 -15206.212)" fill="#f8f8f8"/>
  </g>
</svg>
