<?xml version="1.0" encoding="utf-8"?>
<!-- Generator: Adobe Illustrator 25.4.1, SVG Export Plug-In . SVG Version: 6.00 Build 0)  -->
<svg version="1.1" id="faaae39e-6d1f-40c0-bc77-dd3f36c97390"
	 xmlns="http://www.w3.org/2000/svg" xmlns:xlink="http://www.w3.org/1999/xlink" x="0px" y="0px" viewBox="0 0 634.4 584.3"
	 style="enable-background:new 0 0 634.4 584.3;" xml:space="preserve">
<style type="text/css">
	.st0{fill:#E6E6E6;}
	.st1{fill:#CCCCCC;}
	.st2{fill:#3F3D56;}
	.st3{fill:#007565;}
	.st4{fill:#C7DEDB;}
	.st5{fill:#FFFFFF;}
	.st6{fill:#FFB8B8;}
	.st7{fill:#006665;}
	.st8{fill:#2F2E41;}
</style>
<path class="st0" d="M291.3,321.5c-0.1,0-0.2,0-0.2,0l-13.6,0v-2h13.6c0.3,0,6.7,0.2,12.7-7c8.8-10.7,16.1-37.2,0.5-102.8
	c-21-88.1-3.5-165.9,5-195.3c1.5-5.2-1.5-10.6-6.7-12.1c-0.9-0.3-1.8-0.4-2.7-0.4H97.3c-3.1,0-6.1,1.5-7.9,4
	c-3.6,5-8.5,14.5-11.6,31.7l-2-0.4C79,19.8,84.1,10,87.8,4.8C90,1.8,93.6,0,97.3,0h202.6c6.5,0,11.8,5.3,11.8,11.7
	c0,1.1-0.2,2.2-0.5,3.3c-8.5,29.2-25.9,106.6-5,194.3c15.8,66.4,8.2,93.5-1,104.6C299.2,321.1,292.6,321.5,291.3,321.5z"/>
<path class="st1" d="M254.8,358c-0.1,0-0.2,0-0.2,0l-13.6,0v-2h13.6c0.3,0,6.7,0.2,12.7-7c8.8-10.7,16.1-37.2,0.5-102.8
	c-21-88.1-3.5-165.9,5-195.3c1.5-5.2-1.5-10.6-6.7-12.1c-0.9-0.3-1.8-0.4-2.7-0.4H60.8c-3.1,0-6.1,1.5-7.9,4
	c-3.6,5-8.5,14.5-11.6,31.7l-2-0.4c3.2-17.6,8.3-27.4,12-32.5c2.2-3,5.8-4.8,9.5-4.8h202.6c6.5,0,11.8,5.3,11.8,11.7
	c0,1.1-0.2,2.2-0.5,3.3c-8.5,29.2-25.9,106.6-5,194.3c15.8,66.4,8.2,93.5-1,104.6C262.7,357.6,256.1,358,254.8,358z"/>
<path class="st2" d="M218.3,394.5c-0.1,0-0.2,0-0.2,0l-199.5,0c-6.5,0-11.8-5.2-11.8-11.7c0-1.5,0.3-3,0.8-4.4
	c7.2-18.1,17-61.5,0.9-148.8c-19-103.2-2-140.5,6.2-151.7c2.2-3,5.8-4.8,9.5-4.8h202.6c6.5,0,11.8,5.3,11.8,11.7
	c0,1.1-0.2,2.2-0.5,3.3c-8.5,29.2-25.9,106.6-5,194.3c15.8,66.4,8.2,93.5-1,104.6C226.2,394.1,219.6,394.5,218.3,394.5z M24.3,75
	c-3.1,0-6.1,1.5-7.9,4c-8,11-24.7,47.8-5.8,150.2c15.3,83.5,7.9,127.6-1,149.9c-1.2,3-0.9,6.4,1,9.1c1.8,2.7,4.9,4.3,8.1,4.3h199.5
	c0.3,0,6.7,0.2,12.7-7c8.8-10.7,16.1-37.2,0.5-102.8c-21-88.1-3.5-165.9,5-195.3c1.5-5.2-1.5-10.6-6.7-12.1
	c-0.9-0.3-1.8-0.4-2.7-0.4H24.3z"/>
<path class="st3" d="M192.5,163h-159c-4.4,0-8-3.6-8-8s3.6-8,8-8h159c4.4,0,8,3.6,8,8S196.9,163,192.5,163z"/>
<path class="st1" d="M192.5,197h-159c-4.4,0-8-3.6-8-8s3.6-8,8-8h159c4.4,0,8,3.6,8,8S196.9,197,192.5,197z"/>
<path class="st1" d="M192.5,231h-159c-4.4,0-8-3.6-8-8s3.6-8,8-8h159c4.4,0,8,3.6,8,8S196.9,231,192.5,231z"/>
<path class="st1" d="M204.5,265h-159c-4.4,0-8-3.6-8-8s3.6-8,8-8h159c4.4,0,8,3.6,8,8S208.9,265,204.5,265z"/>
<path class="st1" d="M204.5,299h-159c-4.4,0-8-3.6-8-8s3.6-8,8-8h159c4.4,0,8,3.6,8,8S208.9,299,204.5,299z"/>
<path class="st3" d="M108.5,129h-75c-4.4,0-8-3.6-8-8s3.6-8,8-8h75c4.4,0,8,3.6,8,8S112.9,129,108.5,129z"/>
<path class="st2" d="M98.8,353.8c1.6-6.8,9.2-9.1,15.4-8.8c3.9,0.3,7.8,0.9,11.6,1.8c4,0.9,7.9,1.9,11.9,3.1
	c7.2,2.1,14.3,4.5,21.6,6.1c6.1,1.3,12.7,2.1,18.8,0.3c5.8-1.8,10.8-6.1,12.4-12.1c1.5-5.7-0.6-11.9-6.1-14.5
	c-5-2.4-11.3-1.2-13.8,4.2c-2.8,6,0,12.6,4.4,17c2.5,2.4,5.3,4.5,8.2,6.3c3,2,6.3,3.5,9.9,4.4c5.8,1.2,12.7-0.6,15.7-6.1
	c0.7-1.3,1.1-2.6,1.2-4c0.2-1.9-2.8-1.9-3,0c-0.5,5.5-7,8.1-11.8,7.5c-3.3-0.5-6.4-1.7-9.1-3.5c-2.7-1.6-5.2-3.3-7.6-5.3
	c-4.1-3.5-7.9-9.4-5.2-14.9c2.2-4.5,8.1-4.5,11.6-1.6c4.3,3.5,3.5,9.9,0.7,14.1c-3.1,4.6-8.8,6.6-14.2,6.8
	c-5.8,0.2-11.6-1.1-17.2-2.7c-6.9-2-13.8-4.2-20.7-6c-3.9-1-7.9-2-11.9-2.7c-3.8-0.8-7.7-1.1-11.6-0.8c-6.3,0.7-12.6,4.4-14.2,10.9
	C95.4,354.9,98.3,355.7,98.8,353.8L98.8,353.8z"/>
<path class="st4" d="M405.3,523.4c0.2,19.7,1.6,39.3,4.3,58.9c0.1,0.7,0.2,1.4,0.3,2.1l184.4-1c0.5-0.7,1.1-1.4,1.6-2.1
	c1.7-2.3,3.3-4.7,4.8-7.1c7.1-11.8,10.4-25.7,7.1-35.2l-0.1-0.1c-0.7-2.1-1.8-4-3.3-5.7c-7.4-8.4-22.5-7-36.2-0.2
	c12.3-13.4,22-30.3,22.8-45.5c0.7-14.7-7-25.3-15.3-34.2c-0.3-0.3-0.5-0.6-0.8-0.9c-0.1-0.1-0.3-0.3-0.4-0.4
	c-6.5-6.8-14.1-13.5-25.1-12.7c-12.1,0.9-25.5,11-34.8,22.8c-9.4,11.8-15.6,25.1-21.9,38.2c-6.3,13-13.2,26.4-23.3,37.6
	c13.8-17.4,24.8-37.2,28.9-56.4s0.5-37.7-11.8-46.8c-3.7-2.7-8-4.4-12.6-5.1c-0.5-0.1-1.1-0.2-1.6-0.2c-11.3-1.3-24.9,2.6-36.4,12
	c-12.7,10.3-21.5,25.6-25.9,40.2C405.6,495.9,405.1,509.9,405.3,523.4z"/>
<path class="st5" d="M525.9,583.7l3.5,0c1.1-0.7,2.2-1.4,3.4-2.1c0.7-0.4,1.4-0.9,2.1-1.3c11.7-7.1,23.5-14,35.3-20.6
	c11.8-6.6,23.7-12.8,35.7-18.8c0.7-0.3,1-1,0.8-1.7c0,0,0-0.1-0.1-0.1c-0.2-0.3-0.5-0.4-1.1-0.2c-1.5,0.7-2.9,1.5-4.4,2.2
	c-12,6.1-23.9,12.4-35.8,19.1c-11.9,6.7-23.7,13.6-35.4,20.9c-0.2,0.2-0.5,0.3-0.7,0.5C528.2,582.3,527,583,525.9,583.7z"/>
<path class="st5" d="M480.5,584l2.2,0c0.5-0.7,1-1.4,1.5-2.1c11.6-16.2,23.1-32.4,34.7-48.6c18.9-26.5,37.8-53.1,56.7-79.6
	c0.1-0.1,0.2-0.3,0.2-0.5c0.2-0.6-0.3-0.9-0.8-0.9c-0.5,0.1-0.9,0.3-1.2,0.7c-10.6,14.9-21.2,29.7-31.8,44.6
	c-18.8,26.4-37.6,52.8-56.4,79.2c-1.2,1.7-2.4,3.4-3.6,5C481.4,582.6,480.9,583.3,480.5,584z"/>
<path class="st5" d="M431.9,571.3c0.1,3.7,0.4,7.3,0.7,10.9c0.1,0.7,0.1,1.4,0.2,2.1l2.3,0c-0.1-0.7-0.1-1.4-0.2-2.1
	c-0.5-5.2-0.8-10.4-0.9-15.8c-0.1-14.9,1.4-29.8,4.3-44.4c3.1-15.7,7.6-31.2,13.4-46.1c6.1-15.8,13.4-31,22-45.6
	c0.2-0.2,0.2-0.5,0.2-0.8c-0.1-0.7-1-0.8-1.6-0.2c-0.1,0.1-0.2,0.3-0.3,0.4c-1.1,1.8-2.1,3.6-3.1,5.5c-8.2,14.7-15.2,30-21,45.8
	c-5.5,15-9.7,30.5-12.5,46.2C432.6,541.6,431.5,556.5,431.9,571.3z"/>
<path class="st2" d="M209,354.5c-1.1-0.9-1.2-2.5-0.3-3.5c0.4-0.5,1-0.8,1.7-0.9c5.5-0.5,11,0,16.2,1.7l53.3,16.5
	c2.9,0.9,4.5,4,3.6,6.9s-4,4.5-6.9,3.6l-53.3-16.5C218.1,360.7,213.2,358,209,354.5z"/>
<path class="st6" d="M427.6,422.9c-5.5-2.3-8-8.6-5.8-14.1c0.2-0.6,0.5-1.1,0.9-1.7l-9.1-47.8l23.3-1.8l1.4,46.7
	c4.8,3.6,5.8,10.3,2.2,15.1C437.5,423.5,432.1,424.9,427.6,422.9z"/>
<path class="st7" d="M412.1,398.3l-23.7-110.5c-2-9.4,4-18.8,13.4-20.8c9.4-2,18.8,4,20.8,13.4c0,0,0,0,0,0l23.7,110.5
	c0.5,2.4-1,4.8-3.5,5.3l-25.4,5.5C415,402.2,412.6,400.7,412.1,398.3C412.1,398.3,412.1,398.3,412.1,398.3z"/>
<polygon class="st6" points="373.2,572.1 360.9,572.1 355.1,524.8 373.2,524.8 "/>
<path class="st8" d="M352.2,568.6h23.6l0,0v14.9l0,0h-38.5l0,0l0,0C337.3,575.2,343.9,568.6,352.2,568.6z"/>
<polygon class="st6" points="414.2,571.1 401.9,571.1 396.1,523.8 414.2,523.8 "/>
<path class="st8" d="M393.2,567.6h23.6l0,0v14.9l0,0h-38.5l0,0l0,0C378.3,574.2,384.9,567.6,393.2,567.6z"/>
<path class="st8" d="M358.5,563.2c-0.9-0.8-1.5-1.9-1.6-3.1l-14.3-156.8c-0.2-2.5,1.6-4.7,4.1-4.9c0.1,0,0.2,0,0.2,0l71.5-2.7
	c2.5-0.1,4.6,1.8,4.7,4.3c0,0.1,0,0.2,0,0.3l-5.7,156.2c-0.1,2.3-1.8,4.1-4.1,4.3l-14.4,1.3c-2.5,0.2-4.7-1.6-4.9-4.1
	c0,0,0-0.1,0-0.1l-6.6-99.2c0-0.8-0.7-1.4-1.5-1.4c0,0,0,0,0,0h0c-0.8,0-1.5,0.6-1.5,1.4c0,0,0,0,0,0l-5.9,99.9
	c-0.1,2.2-1.8,4-4,4.2l-12.6,1.3C360.6,564.4,359.4,564,358.5,563.2L358.5,563.2z"/>
<circle class="st6" cx="386" cy="219" r="24.6"/>
<path class="st3" d="M338.7,404.5c-0.9-1-1.3-2.4-1.1-3.7c4.5-27.6,2-68.1-1-97.2c-1.6-15.7,5.4-31.1,18.2-40.3l12.8-11
	c0.9-0.7,1.9-1.1,3.1-1.1l31.9,0.9c1.1,0,2.2,0.5,3.1,1.3l4.9,10.9l0.1,0c11.9,8.8,18.6,22.9,17.9,37.7l-4.7,96.9
	c-0.1,2.3-2,4.2-4.3,4.3l-77.3,2.7c0,0-0.1,0-0.1,0C340.8,406,339.5,405.4,338.7,404.5z"/>
<path class="st6" d="M245.9,364c-0.1-5.9,4.5-10.9,10.5-11c0.6,0,1.3,0,1.9,0.1l39.9-27.9l11.2,20.5l-42.1,20.4
	c-1.3,5.8-7.1,9.5-12.9,8.2C249.5,373.3,246,369,245.9,364L245.9,364z"/>
<path class="st3" d="M279.5,368.9c-1.2-0.2-2.2-0.8-2.9-1.8l-15.4-21c-1.5-2-1-4.8,1-6.3l91.1-66.9c7.8-5.7,18.7-4,24.5,3.8
	c5.7,7.8,4,18.7-3.8,24.5l0,0L282.8,368c-0.8,0.6-1.7,0.9-2.7,0.9C279.9,368.9,279.7,368.9,279.5,368.9z"/>
<path class="st8" d="M387.2,240.8c3.3-4,2.9-10.1,0.3-14.5s-7.1-7.5-11.6-9.9s-9.4-4.3-13.7-7.1s-4.1-14.9-5.3-19.9l2.7,0.9
	c-1-1.3-1.4-5.3-2.4-6.6c3.1,0.3,5.5,3.2,8.5,3.5l-1.8-4.8c10.6-0.7,17.1,6.7,27.7,6c5.2-0.3,10.9-0.5,15.2,2.5
	c3.7,2.6,5.6,7.1,6.9,11.5c2.7,9.4,3.1,20-1.5,28.6s-15.2,14.5-24.5,11.3L387.2,240.8z"/>
<path class="st2" d="M252.4,584h381c0.6,0,1-0.4,1-1s-0.4-1-1-1h-381c-0.6,0-1,0.4-1,1S251.8,584,252.4,584z"/>
</svg>
