<svg xmlns="http://www.w3.org/2000/svg" width="32" height="32" viewBox="0 0 32 32">
  <g id="Group_386" data-name="Group 386" transform="translate(-10814 -4234)">
    <g id="Group_385" data-name="Group 385">
      <g id="Group_384" data-name="Group 384" transform="translate(5395 4366)">
        <g id="Ellipse_21" data-name="Ellipse 21" transform="translate(5419 -132)" fill="#333" stroke="#333" stroke-width="1">
          <circle cx="16" cy="16" r="16" stroke="none"/>
          <circle cx="16" cy="16" r="15.5" fill="none"/>
        </g>
        <g id="noun_land_3097483" transform="translate(5422.867 -129.882)">
          <g id="Group_303" data-name="Group 303" transform="translate(0 0)">
            <path id="Path_46" data-name="Path 46" d="M31.7,49.888a1.028,1.028,0,0,0-.569-.742L25.639,46.6c-.256.53-.569,1.087-.91,1.7l4.124,1.909-2.219,1.8a.932.932,0,0,0-.284,1.114L28.028,56.6l-8.021,1.538-10.1-5.2,1.735-3.58,3.186-.5c-.37-.636-.683-1.246-.967-1.777l-3.072.477a1.062,1.062,0,0,0-.768.53L7.662,52.964a.905.905,0,0,0,.427,1.22l11.292,5.78a.99.99,0,0,0,.484.106.517.517,0,0,0,.2-.027l9.643-1.856a.982.982,0,0,0,.711-.5.929.929,0,0,0,.028-.822l-1.877-3.924,2.816-2.254A.762.762,0,0,0,31.7,49.888Z" transform="translate(-7.568 -33.45)" fill="#f8f8f8"/>
            <path id="Path_47" data-name="Path 47" d="M37.2,21.472c2.058-3.374,5.644-9.592,5.644-12.216A6.879,6.879,0,0,0,35.772,2.6,6.878,6.878,0,0,0,28.7,9.255c0,2.625,3.586,8.842,5.644,12.216L35.772,23.9ZM34.616,9.5c0-1.718-.637-1.4,1.156-1.4,1.826,0,.941-.283.941,1.4s.852,1.015-.941,1.015C33.946,10.543,34.616,11.216,34.616,9.5Z" transform="translate(-23.666 -2.6)" fill="#f8f8f8"/>
          </g>
        </g>
      </g>
    </g>
    <g id="Polygon_1" data-name="Polygon 1" transform="translate(10835.5 4239.5) rotate(90)" fill="#bb5318">
      <path d="M 6.269077777862549 8.500001907348633 L 0.7309295535087585 8.500001907348633 L 3.5 1.379510045051575 L 6.269077777862549 8.500001907348633 Z" stroke="none"/>
      <path d="M 3.5 2.759027004241943 L 1.461845874786377 8.000001907348633 L 5.538155078887939 8.000001907348633 L 3.5 2.759027004241943 M 3.499999761581421 0.7036094665527344 C 3.653342247009277 0.7036094665527344 3.806684732437134 0.7886171340942383 3.872799873352051 0.9586324691772461 L 6.788059711456299 8.455022811889648 C 6.890039920806885 8.717232704162598 6.696609973907471 9.000001907348633 6.415259838104248 9.000001907348633 L 0.5847396850585938 9.000001907348633 C 0.3033895492553711 9.000001907348633 0.109959602355957 8.717232704162598 0.211939811706543 8.455022811889648 L 3.127199649810791 0.9586324691772461 C 3.193314790725708 0.7886171340942383 3.346657276153564 0.7036094665527344 3.499999761581421 0.7036094665527344 Z" stroke="none" fill="#bb5318"/>
    </g>
  </g>
</svg>
