<?xml version="1.0" encoding="UTF-8" standalone="no"?>
<svg
   height="24"
   width="24"
   version="1.1"
   id="svg44"
   sodipodi:docname="rebase_edit_FILL0_wght400_GRAD0_opsz48.svg"
   inkscape:version="1.2.1 (9c6d41e4, 2022-07-14)"
   xmlns:inkscape="http://www.inkscape.org/namespaces/inkscape"
   xmlns:sodipodi="http://sodipodi.sourceforge.net/DTD/sodipodi-0.dtd"
   xmlns="http://www.w3.org/2000/svg"
   xmlns:svg="http://www.w3.org/2000/svg">
  <defs
     id="defs48" />
  <sodipodi:namedview
     id="namedview46"
     pagecolor="#ffffff"
     bordercolor="#000000"
     borderopacity="0.25"
     inkscape:showpageshadow="2"
     inkscape:pageopacity="0.0"
     inkscape:pagecheckerboard="0"
     inkscape:deskcolor="#d1d1d1"
     showgrid="false"
     inkscape:zoom="4.9166667"
     inkscape:cx="23.694915"
     inkscape:cy="23.59322"
     inkscape:window-width="1309"
     inkscape:window-height="456"
     inkscape:window-x="289"
     inkscape:window-y="1273"
     inkscape:window-maximized="0"
     inkscape:current-layer="svg44" />
  <path
     d="M 10.559874,8.9101795 9.3526903,7.7029939 11.738318,5.3173652 H 7.2832299 Q 7.0532898,6.2371258 6.3922121,6.8982037 5.7311349,7.5592819 4.8113755,7.7892221 v 9.4275449 q 1.1209574,0.287425 1.8538912,1.207185 0.7329337,0.919761 0.7329337,2.126947 0,1.437125 -1.0059883,2.443113 Q 5.3862255,24 3.9491001,24 2.5119751,24 1.5059875,22.994012 0.5,21.988024 0.5,20.550899 q 0,-1.207186 0.7329337,-2.126947 0.7329339,-0.91976 1.8538914,-1.207185 V 7.7892221 Q 1.9658676,7.5017962 1.2329337,6.5820361 0.5,5.6622756 0.5,4.4550899 0.5,3.0179641 1.5059875,2.0119761 2.5119751,1.005988 3.9491001,1.005988 q 1.2071848,0 2.1269449,0.7329342 0.9197601,0.7329341 1.2071849,1.8538922 H 11.738318 L 9.3526903,1.2071856 10.559874,0 15.043705,4.4550899 Z M 20.0449,1.005988 q 1.437125,0 2.443113,1.0059881 1.005987,1.005988 1.005987,2.4431138 0,1.4371256 -1.005987,2.4431138 -1.005988,1.005988 -2.443113,1.005988 -1.437125,0 -2.443112,-1.005988 -1.005989,-1.0059882 -1.005989,-2.4431138 0,-1.4371258 1.005989,-2.4431138 Q 18.607775,1.005988 20.0449,1.005988 Z M 3.9491001,22.275449 q 0.7473051,0 1.2359274,-0.502994 0.4886229,-0.502994 0.4886229,-1.221556 0,-0.747307 -0.4886229,-1.235928 -0.4886223,-0.488623 -1.2359274,-0.488623 -0.7185626,0 -1.2215563,0.488623 -0.5029938,0.488621 -0.5029938,1.235928 0,0.718562 0.5029938,1.221556 0.5029937,0.502994 1.2215563,0.502994 z m 0,-16.0958084 q 0.7473051,0 1.2359274,-0.5029941 0.4886229,-0.5029935 0.4886229,-1.2215566 0,-0.7473054 -0.4886229,-1.2359281 -0.4886223,-0.4886229 -1.2359274,-0.4886229 -0.7185626,0 -1.2215563,0.4886229 Q 2.22455,3.7077845 2.22455,4.4550899 q 0,0.7185631 0.5029938,1.2215566 0.5029937,0.5029941 1.2215563,0.5029941 z m 16.0957999,0 q 0.747305,0 1.235928,-0.5029941 0.488622,-0.5029935 0.488622,-1.2215566 0,-0.7473054 -0.488622,-1.2359281 -0.488623,-0.4886229 -1.235928,-0.4886229 -0.718562,0 -1.221556,0.4886229 -0.502994,0.4886227 -0.502994,1.2359281 0,0.7185631 0.502994,1.2215566 0.502994,0.5029941 1.221556,0.5029941 z M 3.9491001,20.550899 Z m 0,-16.0958091 z m 16.0957999,0 z m -3.765267,8.0766461 1.235927,1.207186 -6.093411,6.06467 v 2.471857 h 2.443114 L 19.987416,16.153294 21.194601,17.36048 14.583825,24 H 9.6975999 v -4.886227 z m 4.914968,4.828744 -4.914968,-4.828744 1.868263,-1.868263 q 0.488621,-0.488622 1.221555,-0.488622 0.732935,0 1.221556,0.517365 l 2.41437,2.443114 q 0.488623,0.517365 0.488623,1.221556 0,0.704192 -0.517365,1.192815 z"
     id="path42"
     style="stroke-width:0.57485" />
</svg>
