<svg xmlns="http://www.w3.org/2000/svg" width="40" height="29.277" viewBox="0 0 40 29.277">
  <g id="Group_732" data-name="Group 732" transform="translate(-465.355 -683.473)">
    <path id="cloud_FILL0_wght400_GRAD200_opsz48" d="M11.041,36.578a9.572,9.572,0,0,1-7-2.867,9.463,9.463,0,0,1-2.888-6.98,9.652,9.652,0,0,1,2.232-6.28,9.392,9.392,0,0,1,5.689-3.392,12.551,12.551,0,0,1,4.442-7.046A12.029,12.029,0,0,1,21.238,7.3a11.526,11.526,0,0,1,8.512,3.567,12.889,12.889,0,0,1,3.786,8.687V20.6a7.761,7.761,0,0,1,5.427,2.363,7.678,7.678,0,0,1,2.188,5.6,8.069,8.069,0,0,1-8.009,8.009Zm0-3.195h22.1a4.8,4.8,0,0,0,3.392-8.206,4.63,4.63,0,0,0-3.392-1.422h-2.8V20.079a9.411,9.411,0,0,0-2.691-6.805,8.816,8.816,0,0,0-6.586-2.779,8.887,8.887,0,0,0-6.608,2.779,9.37,9.37,0,0,0-2.713,6.805h-.832a6.339,6.339,0,0,0-4.661,1.9,6.444,6.444,0,0,0-1.9,4.748,6.389,6.389,0,0,0,1.947,4.726,6.5,6.5,0,0,0,4.748,1.926ZM21.15,21.917Z" transform="translate(464.205 676.172)" fill="#007565"/>
    <g id="Group_731" data-name="Group 731" transform="translate(-478.646 -803)">
      <path id="ic_edit_24px" d="M3,14.873V18H6.125L15.34,8.782,12.215,5.658ZM17.756,6.366a.83.83,0,0,0,0-1.175l-1.95-1.95a.83.83,0,0,0-1.175,0L13.107,4.766l3.125,3.125,1.525-1.525Z" transform="translate(952 1492.002)" fill="#007565"/>
    </g>
  </g>
</svg>
