<svg xmlns="http://www.w3.org/2000/svg" width="581.5" height="415.6" viewBox="0 0 581.5 415.6">
  <g id="Metria_logo_neg" transform="translate(-60 -59)">
    <rect id="Rectangle_1" data-name="Rectangle 1" width="581.5" height="415.6" transform="translate(60 59)" fill="none"/>
    <path id="Path_1" data-name="Path 1" d="M626.7,252.3a31.033,31.033,0,0,0-15.5-11.8L112.8,74a30.679,30.679,0,0,0-40.3,29V436.6a30.015,30.015,0,0,0,7.1,18.6,30.784,30.784,0,0,0,23.5,11,29.882,29.882,0,0,0,9.7-1.6l498.5-166a30.572,30.572,0,0,0,20.8-27c0-.7.1-1.3.1-2A32.542,32.542,0,0,0,626.7,252.3Z"/>
    <path id="Path_2" data-name="Path 2" d="M259.6,334.1l-24.9,8.3-.7-2c-2.5-7.4,1.4-12.5,8.9-15,7.6-2.5,13.5-.6,16,6.8Z" fill="#fff"/>
    <path id="Path_3" data-name="Path 3" d="M517.3,277.5c-1.4,4.7-7.6,10.3-13.8,11.9-5.4,1.4-10.1-.4-12-6.1-1.5-4.4,0-9.3,6.6-12.5l14.6-7.2Z" fill="#fff"/>
    <path id="Path_4" data-name="Path 4" d="M508.1,249.4h0l-.9-2.6a4.872,4.872,0,0,1,.3.7Z" fill="#fff"/>
    <path id="Path_5" data-name="Path 5" d="M90.4,387.6c-6.4-19.3,3-33.4,22.5-39.9,8.5-2.8,16.2-3.2,22.9-1.3,4.2-5.6,10.8-10,19.4-12.8,19.3-6.4,35.3-.8,41.7,18.5l.9,2.6,15.1-5-.1-.5c-6.9-20.7,3.2-35.7,23.9-42.7h0l53.8-17.9-3.7-11,22-7.3,3.7,11,19.5-6.5,6.3,18.9-19.6,6.5,11.3,34c2.6,7.7,5.9,8.6,14.2,6.2l8.6-2.9h.1l16-5.3-10.4-31.3c-6.1-18.3.1-35.4,26.8-43.8l42.6-14.2,17.6,52.9c2.6,7.7,5.9,8.6,14.2,6.2l8.6-2.9h.1l4.3-1.4a31.9,31.9,0,0,1-2.4-5.4c-6.9-20.9,7.3-29,20.8-35.1l17.2-7.6-1-3.1c-2.4-5.5-7.4-7.5-13.5-5.4-7.9,2.6-9.7,6.1-7.8,12l-21.9,7.3c-5.7-17.1,2.5-30.2,23.7-37.2,19.5-6.5,35.5-.9,42.1,18.2l7.9,23.9c2.6,7.7,5.9,8.6,14.2,6.2l8.6-2.9h.1l62.2-20.7a30.72,30.72,0,0,0-11.5-7L112.8,74a30.679,30.679,0,0,0-40.3,29V430.8l29.1-9.7Z" fill="#fff"/>
    <path id="Path_6" data-name="Path 6" d="M552.4,291.9h0c-12.1,3.9-20.4,2.7-26.4-2.3-.5,1-1.5,2.7-1.5,2.7-3.9,6.8-10.8,12.4-20.1,15.5-.8.3-1.5.5-2.2.7l-42,14h0c-21.6,7-31-2.3-37.1-20.4l-11-33.1-9.6,3.2c-17.3,5.7-24.6,10.1-22.3,21.3l16.7,50.2-51.5,17.2h0c-22,7.4-31.6-1.9-37.7-20.2l-11.1-33.3-21.5,7.1a37.5,37.5,0,0,1,6.1,11.8l5.4,16.3L240,358.2l1.4,4.2c2.2,6.6,7.9,9.5,16,6.7,8.3-2.8,10-7.3,9.6-12.4l21.9-7.3c4.1,18.9-5.6,32.1-25.2,38.6-20.4,6.8-37.7,1-44.7-19.8l-.9-2.8-15.1,5,11.3,34-21.9,7.3L174.5,358c-2-6-6.9-7.6-13.1-5.5s-9.3,6.3-7.3,12.3L172,418.6l-21.9,7.3-17.9-53.7c-2-6-6.9-7.6-13.1-5.5s-9.3,6.3-7.3,12.3l17.9,53.8-15,5h0L76.3,450.6a35.472,35.472,0,0,0,3.2,4.7,30.784,30.784,0,0,0,23.5,11,29.882,29.882,0,0,0,9.7-1.6l498.5-166a30.572,30.572,0,0,0,20.8-27c0-.7.1-1.3.1-2a28.278,28.278,0,0,0-.3-4.1Z" fill="#fff"/>
    <path id="Path_7" data-name="Path 7" d="M397.2,227.5a12.649,12.649,0,1,0,8-16A12.686,12.686,0,0,0,397.2,227.5Z"/>
  </g>
</svg>
