<svg xmlns="http://www.w3.org/2000/svg" width="45" height="45" viewBox="0 0 45 45">
  <g id="Group_404" data-name="Group 404" transform="translate(-10152 614)">
    <rect id="Rectangle_252" data-name="Rectangle 252" width="45" height="45" transform="translate(10152 -614)" fill="none"/>
    <path id="Path_58" data-name="Path 58" d="M38.584,50.826a1.319,1.319,0,0,0-.731-.954L30.793,46.6c-.329.682-.731,1.4-1.17,2.181l5.3,2.454-2.852,2.318a1.2,1.2,0,0,0-.365,1.431l2.157,4.465L23.557,61.426,10.578,54.747l2.231-4.6L16.9,49.5c-.476-.818-.877-1.6-1.241-2.283l-3.948.614a1.366,1.366,0,0,0-.987.682L7.689,54.78a1.164,1.164,0,0,0,.549,1.568l14.515,7.43a1.273,1.273,0,0,0,.621.137.664.664,0,0,0,.256-.034l12.4-2.383a1.263,1.263,0,0,0,.914-.648,1.2,1.2,0,0,0,.036-1.059l-2.413-5.043,3.619-2.9A.98.98,0,0,0,38.584,50.826Z" transform="translate(10151.411 -646.758)" fill="#333"/>
    <path id="ic_place_24px" d="M13.147,2A8.14,8.14,0,0,0,5,10.147c0,6.11,8.147,15.129,8.147,15.129s8.147-9.019,8.147-15.129A8.14,8.14,0,0,0,13.147,2Zm0,11.056a2.909,2.909,0,1,1,2.909-2.909,2.909,2.909,0,0,1-2.909,2.909Z" transform="translate(10161.354 -616)" fill="#333"/>
  </g>
</svg>
