<svg xmlns="http://www.w3.org/2000/svg" width="40" height="57.143" viewBox="0 0 40 57.143">
  <g id="Group_426" data-name="Group 426" transform="translate(-1523 355.428)">
    <path id="ic_place_24px" d="M25,2A19.985,19.985,0,0,0,5,22C5,37,25,59.143,25,59.143S45,37,45,22A19.985,19.985,0,0,0,25,2Zm0,27.143A7.143,7.143,0,1,1,32.143,22,7.145,7.145,0,0,1,25,29.143Z" transform="translate(1518 -357.428)"/>
    <ellipse id="Ellipse_92" data-name="Ellipse 92" cx="11.5" cy="11" rx="11.5" ry="11" transform="translate(1532 -346)"/>
    <path id="ic_question_answer_24px" d="M24.222,6.678H21.883V17.2H6.678v2.339a1.173,1.173,0,0,0,1.17,1.17H20.713l4.678,4.678V7.848A1.173,1.173,0,0,0,24.222,6.678ZM19.543,13.7V3.17A1.173,1.173,0,0,0,18.374,2H3.17A1.173,1.173,0,0,0,2,3.17V19.543l4.678-4.678h11.7A1.173,1.173,0,0,0,19.543,13.7Z" transform="translate(1529.304 -348)" fill="#fff"/>
  </g>
</svg>
