<svg xmlns="http://www.w3.org/2000/svg" xmlns:xlink="http://www.w3.org/1999/xlink" version="1.1" width="20" height="20" enable-background="new 0 0 22 33" xml:space="preserve" style=""><rect id="backgroundrect" width="100%" height="100%" x="0" y="0" fill="none" stroke="none" class="" style=""/>


<g class="currentLayer" style=""><title>Layer 1</title><g id="Layer_1" class="">
</g><path fill="" fill-opacity="1" stroke="none" stroke-opacity="1" stroke-width="1" stroke-dasharray="none" stroke-linejoin="miter" stroke-linecap="butt" stroke-dashoffset="" fill-rule="nonzero" opacity="1" marker-start="" marker-mid="" marker-end="" id="svg_6" d="M6.736837930942897,22.763152424140685 " style="color: rgb(237, 173, 14);" class=""/><path fill="none" fill-opacity="1" stroke="#242424" stroke-opacity="1" stroke-width="2" stroke-dasharray="none" stroke-linejoin="miter" stroke-linecap="butt" stroke-dashoffset="" fill-rule="nonzero" opacity="1" marker-start="" marker-mid="" marker-end="" id="svg_1" d="M-335.9330164685644,65.02392319499165 " style="color: rgb(235, 235, 26);"/><path fill="#d50b0b" stroke="#000000" stroke-width="2" stroke-dashoffset="" fill-rule="nonzero" marker-start="" marker-mid="" marker-end="" id="svg_4" d="M17.19855217409763,7.80026970823042 L11.354949075544736,7.80026970823042 L9.551105103217557,2.3207232881942033 L9.297821996778918,3.086483729142341 L7.745132701424861,7.801320134075247 L1.9031259249711958,7.80026970823042 L6.629303553941218,11.189993909794127 L4.822266937415507,16.673216820287504 L9.549508781118265,13.283492618723804 L14.27781483955408,16.67479245905513 L12.470246115661885,11.189993909794127 L17.19855217409763,7.80026970823042 zM10.175799151451239,12.433698110181808 L9.550572995851196,11.985691487322544 L8.925346840251144,12.434223323104305 L6.84906389629249,13.922676745359013 L7.641903872330053,11.51510070879737 L7.881352187240669,10.789256449956252 L7.255061816907622,10.34019940125199 L5.17984308768197,8.851745978997277 L8.518816812269446,8.851745978997277 L8.758265127180135,8.126426933078656 L9.550572995851196,5.7188508965173055 L10.34288086452226,8.124851294311302 L10.581797072066443,8.850170340230077 L13.923963440852791,8.850170340230077 L11.845552067428267,10.339674188329653 L11.21872958972885,10.788206024111394 L11.457645797272974,11.51510070879737 L12.252082095409966,13.922676745359013 L10.175799151451239,12.433698110181808 z" style="color: rgb(235, 235, 26);" class="" stroke-opacity="1" fill-opacity="1"/></g></svg>