<svg xmlns="http://www.w3.org/2000/svg" xmlns:xlink="http://www.w3.org/1999/xlink" version="1.1" width="22" height="32" enable-background="new 0 0 22 33" xml:space="preserve"><rect id="backgroundrect" width="100%" height="100%" x="0" y="0" fill="none" stroke="none" class="" style=""/>


<g class="currentLayer" style=""><title>Layer 1</title><g id="Layer_1">
</g><g id="Layer_2" class="selected">
	<g id="svg_1">
		<path fill="#EA9223" d="M20.3,10.1C20.3,4.5,15.8,0,10.1,0C4.5,0,0,4.5,0,10.1c0,1.8,0.5,3.6,1.4,5.1h0L10.1,31l8.8-15.8h0    C19.8,13.7,20.3,12,20.3,10.1z M10.1,13.5c-2.2,0-4-1.8-4-4c0-2.2,1.8-4,4-4c2.2,0,4,1.8,4,4C14.1,11.7,12.3,13.5,10.1,13.5z" id="svg_2"/>
		<path fill="#FFFFFF" d="M10.1,5.5c-2.2,0-4,1.8-4,4c0,2.2,1.8,4,4,4c2.2,0,4-1.8,4-4C14.1,7.3,12.3,5.5,10.1,5.5z" id="svg_3"/>
	</g>
</g></g></svg>