<svg xmlns="http://www.w3.org/2000/svg" width="58" height="58" viewBox="0 0 58 58">  <g id="Group_404" data-name="Group 404" transform="translate(-10152 614)">    <rect id="Rectangle_252" data-name="Rectangle 252" width="58" height="58" transform="translate(10152 -614)" fill="none"/>    <path id="Path_58" data-name="Path 58" d="M47.544,52.047a1.7,1.7,0,0,0-.942-1.23l-9.1-4.217c-.424.879-.942,1.8-1.508,2.811l6.833,3.163-3.676,2.987a1.544,1.544,0,0,0-.471,1.845l2.78,5.755L28.176,65.709,11.447,57.1l2.875-5.93,5.278-.835c-.613-1.054-1.131-2.065-1.6-2.943l-5.089.791a1.76,1.76,0,0,0-1.272.879L7.724,57.143a1.5,1.5,0,0,0,.707,2.021L27.139,68.74a1.641,1.641,0,0,0,.8.176.856.856,0,0,0,.33-.044L44.245,65.8a1.628,1.628,0,0,0,1.178-.835A1.54,1.54,0,0,0,45.47,63.6l-3.11-6.5,4.665-3.734A1.263,1.263,0,0,0,47.544,52.047Z" transform="translate(10153.428 -639.759)" fill="#bb5318"/>    <path id="ic_place_24px" d="M15.5,2A10.492,10.492,0,0,0,5,12.5C5,20.375,15.5,32,15.5,32S26,20.375,26,12.5A10.492,10.492,0,0,0,15.5,2Zm0,14.25a3.75,3.75,0,1,1,3.75-3.75,3.75,3.75,0,0,1-3.75,3.75Z" transform="translate(10165.5 -613)" fill="#bb5318"/>  </g></svg>