<svg xmlns="http://www.w3.org/2000/svg" xmlns:xlink="http://www.w3.org/1999/xlink" width="24" height="24" viewBox="0 0 24 24">
  <defs>
    <clipPath id="clip-favicon">
      <rect width="24" height="24"/>
    </clipPath>
  </defs>
  <g id="favicon" clip-path="url(#clip-favicon)">
    <g id="Path_3" data-name="Path 3" transform="translate(17 0.478)" fill="#0aa4e6">
      <path d="M -6.665215492248535 21.32190132141113 C -9.231716156005859 21.32190132141113 -11.52632617950439 20.39798164367676 -12.80329608917236 18.85040283203125 C -13.92307567596436 17.49333190917969 -14.27912616729736 15.71039199829102 -13.86155605316162 13.55111217498779 C -13.28887557983398 10.58978176116943 -11.32620525360107 7.511002063751221 -9.780575752258301 5.449681758880615 C -8.398379325866699 3.606327772140503 -7.096549987792969 2.228770971298218 -6.670194149017334 1.790139555931091 C -5.76815128326416 2.783036231994629 -0.8041620254516602 8.417489051818848 0.5339342951774597 13.56347179412842 C 1.064194321632385 15.60276222229004 0.8052942752838135 17.31932258605957 -0.2355857044458389 18.66546249389648 C -0.8987357020378113 19.52311134338379 -1.893505692481995 20.22171211242676 -3.112335681915283 20.68573188781738 C -4.205505847930908 21.10192108154297 -5.434075832366943 21.32190132141113 -6.665215492248535 21.32190132141113 Z" stroke="none"/>
      <path d="M -6.675082206726074 2.083456039428711 C -7.203010082244873 2.636159896850586 -8.378538131713867 3.913246154785156 -9.620566368103027 5.569662094116211 C -11.15359687805176 7.614182472229004 -13.09973621368408 10.66510200500488 -13.66519641876221 13.58909225463867 C -14.07088661193848 15.68695259094238 -13.72899627685547 17.41429138183594 -12.6490364074707 18.72311210632324 C -11.40962696075439 20.22516250610352 -9.172686576843262 21.12190246582031 -6.665216445922852 21.12190246582031 C -5.458136558532715 21.12190246582031 -4.254177093505859 20.90644264221191 -3.183496475219727 20.49882125854492 C -1.999086380004883 20.04790115356445 -1.034426689147949 19.37163162231445 -0.3938064575195312 18.54312133789062 C 0.6072235107421875 17.24851226806641 0.854243278503418 15.59005165100098 0.3403635025024414 13.61380195617676 C -0.9272241592407227 8.738932609558105 -5.491901874542236 3.406293869018555 -6.675082206726074 2.083456039428711 M -6.665216445922852 1.500001907348633 C -6.665216445922852 1.500001907348633 -0.7690763473510742 7.757672309875488 0.7274932861328125 13.51314163208008 C 2.224053382873535 19.26861190795898 -2.752456665039062 21.52190208435059 -6.665216445922852 21.52190208435059 C -10.57796669006348 21.52190208435059 -15.18050670623779 19.31814193725586 -14.05791664123535 13.51314163208008 C -12.93531703948975 7.708142280578613 -6.665216445922852 1.500001907348633 -6.665216445922852 1.500001907348633 Z" stroke="none" fill="#08222e"/>
    </g>
    <g id="Path_1" data-name="Path 1" transform="translate(8.484 -4.471) rotate(93)" fill="#98d845">
      <path d="M 19.14885902404785 -1.589245200157166 C 18.19099807739258 -1.589245200157166 17.17143821716309 -1.917145133018494 16.11848831176758 -2.563845157623291 C 14.64433860778809 -3.469225168228149 13.29749774932861 -5.493815422058105 12.11537837982178 -8.581365585327148 C 11.24151802062988 -10.8637752532959 10.7868185043335 -12.91341495513916 10.78232860565186 -12.9338550567627 L 10.74160861968994 -13.11917495727539 L 10.92452812194824 -13.16958522796631 C 10.99927806854248 -13.190185546875 12.78221797943115 -13.6740550994873 15.14177799224854 -13.6740550994873 C 17.42785835266113 -13.6740550994873 19.42021751403809 -13.22335529327393 21.06352806091309 -12.33447551727295 C 22.93067741394043 -11.32452487945557 23.7472972869873 -9.414225578308105 23.42511749267578 -6.810095310211182 C 23.18596839904785 -4.877095222473145 22.41687774658203 -3.266075134277344 22.38425827026367 -3.198435306549072 L 22.11859893798828 -2.647655248641968 L 22.00744819641113 -3.248975276947021 C 22.00445747375488 -3.264775276184082 21.67868804931641 -4.893035411834717 19.77533912658691 -6.876695156097412 C 18.79207229614258 -7.901443958282471 17.35160255432129 -8.722681999206543 16.17632293701172 -9.281344413757324 C 17.01269721984863 -8.690202713012695 17.99545288085938 -7.92190408706665 18.81835746765137 -7.074195384979248 C 20.65760803222656 -5.179485321044922 21.71086883544922 -2.913365125656128 21.75480842590332 -2.817825078964233 L 21.80938911437988 -2.699135303497314 L 21.7226390838623 -2.601455211639404 C 21.68593788146973 -2.560125112533569 20.80466842651367 -1.589245200157166 19.14885902404785 -1.589245200157166 Z" stroke="none"/>
      <path d="M 15.14177322387695 -13.47405815124512 C 12.78214454650879 -13.47405815124512 10.97766876220703 -12.97677516937256 10.97766876220703 -12.97677516937256 C 10.97766876220703 -12.97677516937256 12.76112747192383 -4.860555648803711 16.22315788269043 -2.734265327453613 C 17.37730979919434 -2.025411605834961 18.35622406005859 -1.789242744445801 19.14885902404785 -1.789242744445801 C 20.73383903503418 -1.789242744445801 21.57309722900391 -2.734265327453613 21.57309722900391 -2.734265327453613 C 21.57309722900391 -2.734265327453613 20.51136779785156 -5.042995452880859 18.67484855651855 -6.934885025024414 C 16.83833885192871 -8.826765060424805 14.22703742980957 -10.30179500579834 14.22703742980957 -10.30179500579834 C 14.22703742980957 -10.30179500579834 17.94402885437012 -9.074134826660156 19.91964912414551 -7.015165328979492 C 21.89526748657227 -4.956185340881348 22.20411682128906 -3.285325050354004 22.20411682128906 -3.285325050354004 C 22.20411682128906 -3.285325050354004 25.34272766113281 -9.792445182800293 20.9683780670166 -12.15856552124023 C 19.07328987121582 -13.18363380432129 16.94541931152344 -13.47405815124512 15.14177322387695 -13.47405815124512 M 15.14177894592285 -13.87405490875244 C 17.46145820617676 -13.87405490875244 19.48583793640137 -13.41525554656982 21.15868759155273 -12.51039505004883 C 23.10439682006836 -11.45794486999512 23.95675849914551 -9.478315353393555 23.62359809875488 -6.785534858703613 C 23.38045883178711 -4.820235252380371 22.59760856628418 -3.180395126342773 22.56439781188965 -3.111545562744141 L 22.03307723999023 -2.009995460510254 L 21.93518257141113 -2.53959846496582 L 21.87217712402344 -2.468655586242676 C 21.83303833007812 -2.424574851989746 20.89350891113281 -1.38924503326416 19.14885902404785 -1.38924503326416 C 18.15349769592285 -1.38924503326416 17.09871864318848 -1.727095603942871 16.01381874084473 -2.393415451049805 C 12.44792747497559 -4.583495140075684 10.66129875183105 -12.55275535583496 10.58698844909668 -12.89092540740967 L 10.50553894042969 -13.26157569885254 L 10.87139892578125 -13.36239528656006 C 10.94720840454102 -13.3832950592041 12.75547790527344 -13.87405490875244 15.14177894592285 -13.87405490875244 Z M 21.82628631591797 -3.128725051879883 L 21.8107795715332 -3.212615013122559 C 21.80804824829102 -3.226675033569336 21.48502731323242 -4.805994987487793 19.63101768493652 -6.738224983215332 C 19.25110626220703 -7.134167194366455 18.80057334899902 -7.499623775482178 18.32340431213379 -7.830661296844482 C 18.54212188720703 -7.6313157081604 18.75644302368164 -7.425103187561035 18.96185874938965 -7.213495254516602 C 20.50806427001953 -5.620676040649414 21.50618362426758 -3.767921447753906 21.82628631591797 -3.128725051879883 Z" stroke="none" fill="#161914"/>
    </g>
  </g>
</svg>
