<svg xmlns:dc="http://purl.org/dc/elements/1.1/" xmlns:cc="http://creativecommons.org/ns#" xmlns:rdf="http://www.w3.org/1999/02/22-rdf-syntax-ns#" xmlns:svg="http://www.w3.org/2000/svg" xmlns="http://www.w3.org/2000/svg" viewBox="96.6012191772461 96.59553527832031 746.0894165039062 524.9096069335938" height="718.10669" width="939.29333" xml:space="preserve" id="svg2" version="1.1">
	<metadata id="metadata8">
		<rdf>
			<work rdf:about="">
				<format>
					image/svg+xml
				</format>
				<type rdf:resource="http://purl.org/dc/dcmitype/StillImage">
				</type>
			</work>
		</rdf>
	</metadata>
	<defs id="defs6">
	</defs>
	<g transform="matrix(1.3333333,0,0,-1.3333333,0,718.10667)" id="g10">
		<g transform="scale(0.1)" id="g12">
			<path id="path14" style="fill:#ffffff;fill-opacity:1;fill-rule:nonzero;stroke:none" d="m 6266.79,2862.6 c -36.83,54.07 -90.67,96.44 -155.4,118.11 l -4983.3,1664.96 c -93.09,31.01 -195.86,15.42 -275.5,-41.82 -79.629,-57.33 -127.988,-149.89 -128.027,-248.06 0,0 -0.122,-3332.25 0,-3335.62 2.289,-68.611 27.375,-133.908 70.57,-185.748 16.199,-19.461 34.754,-37.133 55.695,-52.223 52.703,-37.988 115.406,-57.668 178.892,-57.687 32.45,0 65.12,5.039 96.57,15.597 L 6111.1,2400.53 c 118.1,39.4 200.24,147.25 208.28,270.24 0.44,6.52 0.8,13.08 0.8,19.71 0.03,62.82 -19.52,122.39 -53.39,172.12">
			</path>
			<path id="path16" style="fill:#f46f1b;fill-opacity:1;fill-rule:nonzero;stroke:none" d="m 2596.02,2045.22 -249.18,-82.99 -6.52,19.64 c -24.66,73.98 13.6,125.28 89.09,150.47 75.53,25.16 135.41,6.49 160.07,-67.5 l 6.54,-19.62">
			</path>
			<path id="path18" style="fill:#f46f1b;fill-opacity:1;fill-rule:nonzero;stroke:none" d="m 5173.09,2610.61 c -14.01,-47.31 -76.17,-102.62 -138.3,-118.58 -53.66,-13.79 -100.9,4.1 -119.95,61.27 -14.53,43.74 -0.06,92.85 66.33,125.28 l 146.1,71.52 45.82,-139.49">
			</path>
			<path id="path20" style="fill:#f46f1b;fill-opacity:1;fill-rule:nonzero;stroke:none" d="m 5080.68,2892 -0.24,-0.07 -8.67,25.85 c 0.86,-2.22 1.83,-4.41 2.58,-6.75 l 6.33,-19.03">
			</path>
			<path id="path22" style="fill:#f46f1b;fill-opacity:1;fill-rule:nonzero;stroke:none" d="m 903.738,1510.08 c -64.379,193.25 29.762,333.7 224.572,398.58 84.57,28.18 162.09,32.15 229.01,12.53 41.78,55.86 107.75,99.65 193.82,128.3 193.28,64.39 352.82,8.49 417.2,-184.82 l 8.56,-25.65 150.96,50.33 -1.5,4.5 c -68.83,206.6 31.57,357.45 239.44,427.02 l -0.12,0.31 538.08,179.23 -36.73,110.27 220.08,73.3 36.71,-110.26 195.27,65.05 62.87,-188.72 -196.32,-65.43 113.33,-340.22 c 25.67,-77.18 58.97,-85.88 142.27,-61.51 l 86.05,28.64 c 0.23,0.08 0.42,0.15 0.63,0.23 l 159.59,53.14 -104.28,313.05 c -61.02,183.14 1.25,354.32 267.67,437.96 l 426.31,142 176.23,-528.98 c 25.68,-77.14 58.87,-85.84 142.19,-61.54 l 86.05,28.66 c 0.24,0.08 0.5,0.2 0.69,0.28 v -0.03 l 42.56,14.15 c -9.92,17.5 -17.92,35.82 -24.11,54.38 -69.46,208.51 73.12,290.36 207.57,350.55 l 171.85,76.42 -10.28,30.78 c -23.52,54.75 -74.22,74.69 -135.01,54.42 -78.55,-26.15 -97.22,-60.88 -77.55,-119.81 l -218.99,-72.92 c -56.85,170.63 25.27,302.04 236.63,372.44 194.75,64.88 355.32,9.39 421.23,-181.7 l 79.06,-238.94 c 25.69,-77.19 58.99,-85.9 142.27,-61.55 l 86.02,28.67 c 0.23,0.08 0.42,0.14 0.7,0.21 l 622.06,207.22 c -32.02,31.04 -70.99,55.36 -114.99,70.09 l -4983.3,1664.96 c -93.09,31.01 -195.86,15.42 -275.5,-41.82 -79.629,-57.33 -127.988,-149.89 -128.027,-248.06 0,0 -0.106,-2835.34 -0.02,-3277.84 l 290.867,96.89 -111.672,335.24">
			</path>
			<path id="path24" style="fill:#f46f1b;fill-opacity:1;fill-rule:nonzero;stroke:none" d="m 5524.37,2467.06 v 0.12 c -121.13,-39.58 -204.04,-27.57 -264.2,22.68 -5.19,-9.71 -14.74,-27.2 -14.74,-27.2 -39.14,-67.95 -107.83,-124.47 -200.51,-155.33 -7.56,-2.52 -14.81,-5.32 -22.11,-7.37 l -420.37,-140.02 v 0.09 c -215.53,-70.31 -310.24,22.51 -370.56,203.51 l -110.79,332.68 -96.35,-32.12 c -173.2,-57.31 -245.91,-101.08 -222.53,-213.23 l 167.14,-501.82 -515.21,-171.62 -0.01,0.08 c -219.88,-74.18 -315.8,18.75 -376.66,201.5 l -110.81,332.66 -214.51,-71.44 c 25.1,-31.91 45.83,-70.99 61.31,-117.5 l 54.33,-163.11 -468.15,-155.93 14.09,-42.3 c 22.15,-66.42 78.52,-94.63 160.05,-67.44 83.09,27.63 99.68,73.45 96.17,124.29 l 218.97,72.93 c 41.25,-189.3 -55.97,-320.62 -252.24,-386.03 -203.88,-67.88 -377.5,-9.96 -446.93,198.41 l -9.18,27.56 -150.99,-50.32 113.27,-340.02 -218.95,-72.91 -179.07,537.49 c -20.11,60.37 -68.93,75.97 -130.8,55.38 -61.92,-20.65 -93.13,-62.91 -73.03,-123.3 l 179.01,-537.51 -218.93,-72.9 -179.05,537.49 c -20.1,60.39 -68.91,76.01 -130.85,55.34 -61.92,-20.59 -93.11,-62.86 -73.01,-123.25 l 179.05,-537.51 -150.34,-50.04 0.03,-0.11 -383.73,-127.838 c 9.175,-16.454 19.816,-32.11 31.953,-46.68 16.199,-19.461 34.754,-37.133 55.695,-52.223 52.703,-37.988 115.406,-57.668 178.892,-57.687 32.45,0 65.12,5.039 96.57,15.597 L 6111.1,2400.53 c 118.1,39.4 200.24,147.25 208.28,270.24 0.44,6.52 0.8,13.08 0.8,19.71 0.01,13.77 -0.99,27.38 -2.82,40.79 l -792.99,-264.21">
			</path>
			<path id="path26" style="fill:#ffffff;fill-opacity:1;fill-rule:nonzero;stroke:none" d="m 3971.91,3111.23 c 22.1,-66.35 93.86,-102.22 160.3,-80.11 66.24,22.09 102.12,93.8 80.02,160.16 -22.09,66.37 -93.83,102.25 -160.11,80.18 -66.39,-22.15 -102.32,-93.86 -80.21,-160.23">
			</path>
		</g>
	</g>
</svg>