<svg xmlns="http://www.w3.org/2000/svg" width="29" height="32.158" viewBox="0 0 29 32.158">
  <g id="Icon_feather-box" data-name="Icon feather-box" transform="translate(-3.5 -1.961)">
    <path id="Path_314" data-name="Path 314" d="M31.5,24V12A3,3,0,0,0,30,9.4l-10.5-6a3,3,0,0,0-3,0L6,9.4A3,3,0,0,0,4.5,12V24A3,3,0,0,0,6,26.595l10.5,6a3,3,0,0,0,3,0l10.5-6A3,3,0,0,0,31.5,24Z" fill="none" stroke="#fff" stroke-linecap="round" stroke-linejoin="round" stroke-width="2"/>
    <path id="Path_315" data-name="Path 315" d="M4.905,10.44,18,18.015,31.095,10.44" fill="none" stroke="#fff" stroke-linecap="round" stroke-linejoin="round" stroke-width="2"/>
    <path id="Path_316" data-name="Path 316" d="M18,33.12V18" fill="none" stroke="#fff" stroke-linecap="round" stroke-linejoin="round" stroke-width="2"/>
  </g>
</svg>
